<svg height="11" viewBox="0 0 78 11" width="78" xmlns="http://www.w3.org/2000/svg" xmlns:xlink="http://www.w3.org/1999/xlink"><mask id="a" fill="#fff"><path d="m.0066055.0406h11.9842569v10.9255h-11.9842569z" fill="#fff" fill-rule="evenodd"/></mask><mask id="b" fill="#fff"><path d="m.06753982.0186h11.92523898v10.9643h-11.92523898z" fill="#fff" fill-rule="evenodd"/></mask><g fill="#fff" fill-rule="evenodd"><path d="m11.9908624 3.3873c0 .4647-.0976514.9-.2907523 1.3015-.1954129.4014-.4558899.7522-.7815413 1.048s-.7118532.5324-1.15376146.7099c-.44422018.1753-.92113762.2641-1.43284404.2641h-4.88972477v-1.4177h4.60822019c.29548623 0 .57919266-.0508.85133945-.15.27225688-.0972.50950458-.2325.71185321-.4015.20003669-.1691.36055045-.3697.47680732-.6043.1162569-.2324.1744954-.4817.1744954-.75 0-.2684-.0582385-.5156-.1744954-.7417-.11625687-.226-.27677063-.4246-.47680732-.5936-.20234863-.1691-.43959633-.3022-.71185321-.4015-.27214679-.0993-.55585322-.1479-.85133945-.1479h-6.25706422v9.0831c0 .112-.04183487.205-.12792661.2747-.08609174.0718-.1906789.1057-.31398165.1057h-.93280734c-.12561468 0-.22557798-.0339-.30242202-.1057-.07904587-.0697-.11625688-.1627-.11625688-.2747v-10.1417c0-.1141.03721101-.2091.11625688-.2873.07684404-.076.17680734-.1161.30242202-.1161h7.9132844c.51170642 0 .98862386.0887 1.43284404.2661.44190826.1754.82811006.4163 1.15376146.7184.3256514.3042.5861284.6571.7815413 1.0586.1931009.4034.2907523.8366.2907523 1.3036" mask="url(#a)"/><path d="m28 10.8938849c0 .0721502-.0464493.1061151-.1394581.1061151h-1.4697584c-.1069876 0-.2210196-.0319551-.337253-.0955639-.1162334-.0637093-.2139752-.144401-.2906936-.2441854l-3.1697823-3.93630902h-1.9790501v.00211024h-1.1675075v-1.4267261h4.055842c.5907431 0 1.0977234-.18469662 1.5255636-.55419034.4279503-.36939324.6419255-.82158844.6419255-1.36090659 0-.53931814-.2139752-.99362359-.6419255-1.36301682-.4278402-.36738348-.9348205-.5520801-1.5255636-.5520801h-5.7069949v9.12740943c0 .1125464-.0418265.206-.1279008.27604-.0860744.0721503-.1907505.1062157-.3139183.1062157h-.9326191c-.1255894 0-.2255325-.0340654-.302361-.1062157-.0790299-.07004-.1185449-.1634936-.1185449-.27604v-10.19117352c0-.11465661.039515-.21012004.1185449-.28870152.0768285-.07637074.1767716-.11666636.302361-.11666636h7.31401c.5116032 0 .9907358.0891327 1.4325549.2673981.4442406.17625564.8325659.4183308 1.1650859.72190452.3349416.30568395.5976776.66030548.793051 1.06376409.1953734.40536787.2906936.84068112.2906936 1.30995925 0 .39702739-.0697841.77285185-.2092422 1.12737289-.1395681.35452103-.3349415.67296694-.5813872.95744797-.2488672.28247127-.5442938.52876692-.8860597.73466647-.341876.20378931-.7069766.35040104-1.0954119.43531325l3.3093504 4.12733636c.0302691.0425063.0464493.0934537.0464493.148722"/><path d="m37 4.96289692-.8636747 1.03710308-3.0606827-3.69635787c-.0489886-.051079-.0756426-.11537352-.0756426-.19068096 0-.07530745.051201-.11296117.153603-.11296117h1.3132112c.0891276 0 .1847871.04877153.2871892.15061489z"/><path d="m35.5437037.5512037c-.2416049-.22564814-.577037-.39583333-.954321-.48462963-.0591358-.01472222-.1208642-.02583333-.1824691-.03509259-.1332099-.02037037-.2712346-.03148148-.4093827-.03148148-.2046914 0-.3995062.02222222-.5869136.06472222-.8162963.19055556-1.4106173.76203704-1.4106173 1.43527778 0 .16462963.037037.3237037.1011111.47351852.1455556.32731481.4390124.60472222.8187654.78787037.3107408.15166667.6830865.23861111 1.0776544.23861111 1.1048148 0 2.0024691-.67324074 2.0024691-1.5 0-.36064815-.1702469-.68990741-.4562963-.9487963"/><path d="m45 1.62423114c0 .88579825-.8034826 1.60867145-1.7958397 1.62804578l-3.5126129 3.5436949c-.0483246.05440873-.0790664.12046214-.0790664.19022979v.93649273c.2502446.09717279.4741716.24875431.6454632.43908448.2590928.27977332.4171122.63724471.4171122 1.02954973 0 .68793915-.4873304 1.27840445-1.1722701 1.51159905-.127391.0505941-.2635168.0777985-.4040667.0970724h-.5269203c-.179913-.0232893-.3512046-.0697677-.509224-.1320064-.0790664-.034934-.149398-.0699684-.2195028-.1087171-.3468939-.1982606-.6191456-.5012229-.7509607-.85487963-.0614835-.1632262-.0921118-.33408166-.0921118-.51306832 0-.4349687.1931852-.82757488.5049133-1.11899286.1448605-.13582106.3161522-.24855354.5049133-.33408166.0087347-.00401541.0131588-.00772965.022007-.00772965v-.92474767c0-.04667908.0043106-.08934275.0175829-.12829218.0087347-.03884904.0263177-.07378306.0439006-.10891785.0394765-.07378306.0878011-.13973608.1448605-.20177408l3.5916793-3.82738323c-.1844504-.16714121-.3248869-.37303108-.4128015-.60231068-.0570594-.15921079-.0921118-.33418205-.0921118-.51286755 0-.73040209.5443898-1.34837285 1.2952371-1.55426272.1757157-.04667907.351318-.06996842.5400791-.06996842.1272776 0 .2546687.01174506.3776356.03111939.0570594.01174505.1141188.02328934.1668676.03884903.3467805.09717279.6541979.28368834.8781249.52461261.2634034.28368833.4171121.64105934.4171121 1.02965011"/><g transform="translate(66)"><path d="m.06753982 2.4868v7.9954c0 .2768.23776992.5007.53171682.5007h.92219469c.18849557 0 .34332743-.1458.34332743-.3233v-6.2331z" mask="url(#b)"/><path d="m10.1977699.4507v8.3803l-8.04053096-8.6933c-.06053098-.0697-.15090266-.1103-.24647788-.111l-1.70038938-.0081c-.12212389-.0006-.18785841.1348-.10757522.2214l9.68272566 10.4474c.16640708.1872.41235398.2954.67157518.2954h.8715399c.3667964 0 .6641416-.28.6641416-.6254v-9.9067c0-.2336-.2010266-.423-.4490974-.423h-.8967079c-.2480708 0-.4492036.1894-.4492036.423" mask="url(#b)"/></g><path d="m57.6200159 0h-7.0747669c-.1810495 0-.362099.04540795-.5472243.1359218-.1811568.09444048-.342042.20791001-.486946.3438318-.1449039.1359218-.2655678.2870467-.3622062.45709997-.1006069.17005327-.1488725.33990518-.1488725.51368371v8.09872407c0 .17005327.0482656.34010654.1488725.51388505.0966384.1698519.2173023.3210775.3622062.4571.144904.1359218.3057892.24919.486946.3399052.1851253.0944405.3661748.1398484.5472243.1398484h.2253465v-8.98644443c0-.3005382.2594543-.54408992.5796159-.54408992h6.2698045zm3.2351874.93685357c-.1006069-.17005327-.2213781-.32117817-.3661748-.45709997-.1408282-.13592179-.3058964-.24939132-.4869459-.3438318-.1810495-.09051385-.3622063-.1359218-.5432558-.1359218h-.2294223v8.98261849c0 .30043751-.2594543.54398923-.5795086.54398923h-6.2662651v1.47339228h7.075196c.1810495 0 .3622063-.0454079.5432558-.1398484.1810495-.0907152.3461177-.2039834.4869459-.3399052.1447967-.1360225.2655679-.2872481.3661748-.4571.0965311-.17377851.1447967-.34383178.1447967-.51388505v-8.09872407c0-.17377853-.0482656-.34363044-.1447967-.51368371z"/></g></svg>